<svg xmlns="http://www.w3.org/2000/svg" viewBox="0 0 796.03 206.95"><defs><style>.cls-1{fill:#464f5a;}.cls-2,.cls-3{fill:#84be4b;}.cls-3{fill-rule:evenodd;}</style></defs><g id="Warstwa_2" data-name="Warstwa 2"><g id="Warstwa_1-2" data-name="Warstwa 1"><polygon class="cls-1" points="403.81 174.13 373.12 79.07 342.42 174.13 319.59 174.13 275.83 36.23 303.45 36.23 331.7 134.89 362.27 35.83 384.71 35.83 415.28 134.89 443.53 36.23 470.4 36.23 426.64 174.13 403.81 174.13"/><path class="cls-1" d="M545.14,175.14a87.49,87.49,0,0,1-57.24-21l16.25-19.48C518.06,145.81,531.31,151,545.74,151c13.41,0,21.74-5.65,21.74-14.73,0-9.65-6.3-13.8-29.35-19.7-30.65-7.82-45.24-16-45.24-41.3,0-24.71,19.07-41.05,47.46-41.05,18.92,0,35.7,5.57,49.89,16.57l-14.3,20.75c-13.14-8.89-24.93-13.21-36-13.21-11.87,0-19.53,5.39-19.53,13.75,0,10.77,6.67,14,31.35,20.28,26.69,7,43.24,16.16,43.24,40.5,0,26.21-19.11,42.26-49.86,42.26"/><polygon class="cls-1" points="628.9 173.14 628.9 36.23 731.4 36.23 731.4 60.55 656.42 60.55 656.42 92.03 722.41 92.03 722.41 116.34 656.42 116.34 656.42 148.82 732.4 148.82 732.4 173.14 628.9 173.14"/><rect class="cls-1" x="768.31" y="36.23" width="27.72" height="136.91"/><rect class="cls-2" width="31.98" height="31.98"/><rect class="cls-2" x="6.04" y="54.2" width="52.04" height="52.04"/><path class="cls-3" d="M221.17,109.05c-8.12-8.34-23.09-22.74-21.75-32.36,4-28.61-12.17-48.89-39.26-63.5a94.17,94.17,0,0,0-50.29-10.5V2.42H58.08V54.2h51v52h-51V158h51.43V207h51.35s5-13.68,9.23-18.88c5.24-6.51,23.37-3.24,32.66-5,19.11-3.6,5.61-19.92,5.91-22.84.42-4,9.16-4.56,5.9-10.4-1.15-2.05-2.23-2-4.85-4.32,13.3-8.12-1.15-10,1.71-19.73,1.15-3.92,17.31-9,9.75-16.73"/></g></g></svg>