<svg xmlns="http://www.w3.org/2000/svg" viewBox="0 0 398.01 103.48"><defs><style>.cls-1,.cls-2{fill:#fff;}.cls-2{fill-rule:evenodd;}</style></defs><g id="Warstwa_2" data-name="Warstwa 2"><g id="Warstwa_1-2" data-name="Warstwa 1"><rect class="cls-1" width="15.99" height="15.99"/><rect class="cls-1" x="3.02" y="27.1" width="26.02" height="26.02"/><path class="cls-2" d="M110.58,54.53c-4-4.17-11.54-11.37-10.87-16.18C101.7,24,93.62,13.9,80.08,6.59A47.2,47.2,0,0,0,54.93,1.34V1.21H29V27.1H54.53v26H29V79H54.76v24.47H80.43S83,96.64,85.05,94c2.61-3.26,11.68-1.63,16.33-2.51,9.55-1.79,2.8-10,3-11.42.21-2,4.58-2.27,3-5.19-.58-1-1.12-1-2.42-2.16,6.65-4.07-.58-5,.85-9.87.58-2,8.65-4.48,4.87-8.36"/><polygon class="cls-1" points="201.9 87.07 186.56 39.53 171.21 87.07 159.8 87.07 137.92 18.12 151.72 18.12 165.85 67.44 181.13 17.92 192.36 17.92 207.64 67.44 221.76 18.12 235.2 18.12 213.32 87.07 201.9 87.07"/><path class="cls-1" d="M272.57,87.57A43.74,43.74,0,0,1,244,77.06l8.13-9.74c6.95,5.58,13.58,8.19,20.79,8.19,6.71,0,10.87-2.82,10.87-7.37,0-4.82-3.15-6.89-14.68-9.84-15.32-3.91-22.61-8-22.61-20.65,0-12.36,9.53-20.53,23.72-20.53a39.78,39.78,0,0,1,24.95,8.28L288,35.78c-6.57-4.44-12.47-6.6-18-6.6-5.93,0-9.77,2.69-9.77,6.87,0,5.39,3.34,7,15.68,10.14,13.34,3.48,21.62,8.08,21.62,20.25,0,13.11-9.55,21.13-24.93,21.13"/><polygon class="cls-1" points="314.45 86.57 314.45 18.12 365.7 18.12 365.7 30.28 328.21 30.28 328.21 46.02 361.2 46.02 361.2 58.17 328.21 58.17 328.21 74.41 366.2 74.41 366.2 86.57 314.45 86.57"/><rect class="cls-1" x="384.15" y="18.12" width="13.86" height="68.45"/></g></g></svg>